<svg xmlns="http://www.w3.org/2000/svg" xmlns:xlink="http://www.w3.org/1999/xlink" viewBox="0,0,256,256" width="96px" height="96px"><defs><linearGradient x1="11.4" y1="26.466" x2="36.495" y2="22.945" gradientUnits="userSpaceOnUse" id="color-1"><stop offset="0" stop-color="#2196f3"></stop><stop offset="0.145" stop-color="#3db9d8"></stop><stop offset="0.297" stop-color="#55d7c1"></stop><stop offset="0.428" stop-color="#64e9b3"></stop><stop offset="0.521" stop-color="#69f0ae"></stop><stop offset="0.606" stop-color="#7cf2a8"></stop><stop offset="0.78" stop-color="#aef798"></stop><stop offset="1" stop-color="#f4ff81"></stop></linearGradient><linearGradient x1="30.288" y1="10.118" x2="36.326" y2="11.19" gradientUnits="userSpaceOnUse" id="color-2"><stop offset="0" stop-color="#ddfc8a"></stop><stop offset="0.247" stop-color="#bdf994"></stop><stop offset="0.757" stop-color="#81f2a7"></stop><stop offset="1" stop-color="#69f0ae"></stop></linearGradient><linearGradient x1="17.99" y1="6.656" x2="23.258" y2="7.642" gradientUnits="userSpaceOnUse" id="color-3"><stop offset="0" stop-color="#2196f3"></stop><stop offset="0.131" stop-color="#2da5e7"></stop><stop offset="0.513" stop-color="#4ecec8"></stop><stop offset="0.816" stop-color="#62e7b5"></stop><stop offset="1" stop-color="#69f0ae"></stop></linearGradient><linearGradient x1="16.247" y1="33.931" x2="20.201" y2="33.376" gradientUnits="userSpaceOnUse" id="color-4"><stop offset="0" stop-color="#2196f3"></stop><stop offset="0.145" stop-color="#3db9d8"></stop><stop offset="0.297" stop-color="#55d7c1"></stop><stop offset="0.428" stop-color="#64e9b3"></stop><stop offset="0.521" stop-color="#69f0ae"></stop><stop offset="0.606" stop-color="#7cf2a8"></stop><stop offset="0.78" stop-color="#aef798"></stop><stop offset="1" stop-color="#f4ff81"></stop></linearGradient><linearGradient x1="15.759" y1="34.071" x2="26.816" y2="32.519" gradientUnits="userSpaceOnUse" id="color-5"><stop offset="0" stop-color="#2196f3"></stop><stop offset="0.145" stop-color="#3db9d8"></stop><stop offset="0.297" stop-color="#55d7c1"></stop><stop offset="0.428" stop-color="#64e9b3"></stop><stop offset="0.521" stop-color="#69f0ae"></stop><stop offset="0.606" stop-color="#7cf2a8"></stop><stop offset="0.78" stop-color="#aef798"></stop><stop offset="1" stop-color="#f4ff81"></stop></linearGradient><linearGradient x1="19.792" y1="31.867" x2="27.192" y2="30.828" gradientUnits="userSpaceOnUse" id="color-6"><stop offset="0" stop-color="#2196f3"></stop><stop offset="0.145" stop-color="#3db9d8"></stop><stop offset="0.297" stop-color="#55d7c1"></stop><stop offset="0.428" stop-color="#64e9b3"></stop><stop offset="0.521" stop-color="#69f0ae"></stop><stop offset="0.606" stop-color="#7cf2a8"></stop><stop offset="0.78" stop-color="#aef798"></stop><stop offset="1" stop-color="#f4ff81"></stop></linearGradient></defs><g transform=""><g fill-opacity="0.27059" fill="#ffffff" fill-rule="nonzero" stroke="none" stroke-width="1" stroke-linecap="butt" stroke-linejoin="miter" stroke-miterlimit="10" stroke-dasharray="" stroke-dashoffset="0" font-family="none" font-weight="none" font-size="none" text-anchor="none" style="mix-blend-mode: normal"><path d="M64,256c-35.34622,0 -64,-28.65378 -64,-64v-128c0,-35.34622 28.65378,-64 64,-64h128c35.34622,0 64,28.65378 64,64v128c0,35.34622 -28.65378,64 -64,64z" id="shape"></path></g><g fill="none" fill-rule="nonzero" stroke="none" stroke-width="1" stroke-linecap="butt" stroke-linejoin="miter" stroke-miterlimit="10" stroke-dasharray="" stroke-dashoffset="0" font-family="none" font-weight="none" font-size="none" text-anchor="none" style="mix-blend-mode: normal"><g transform="scale(5.33333,5.33333)"><path d="M28,1c1,0 3.633,3.07 4,4c0.276,0.7 0,3 0,3c0,0 3,2 3,4c0,2 -4.066,0.645 -5,0c0.241,1.649 2,2.945 2,6.625c0,3.835 -6,10.375 -6,10.375c0,0 -1,2 1,5c2,3 0,8 0,8c0,0 0.117,3.338 3,5c-0.772,0 -0.827,0 -1.725,0c-1.352,0 -3.047,-2.158 -4.275,-4c0,2 0,3 -1,3c-1,0 -2,0 -2,0c0,0 2.141,-1.196 0.778,-2.211c-2.778,-2.07 -5.058,-5.635 -3.464,-10.478c0.941,-2.861 1.686,-3.311 1.686,-4.311c0,-1 -4,-3.38 -4,-9c0,-5.618 4,-8 5,-10c-1.345,-1.404 -2,-2.143 -2,-3c0,-2 5,-2 5,-2c0,0 2.586,-4 4,-4z" fill="url(#color-1)"></path><path d="M35,12c0,-2 -3,-4 -3,-4c-0.145,1.357 -0.628,2.803 -2,4c0.934,0.645 5,2 5,0z" fill="url(#color-2)"></path><path d="M19,7c0,0.857 0.655,1.596 2,3c1.13,-1.532 2,-3.299 3,-5c0,0 -5,0 -5,2z" fill="url(#color-3)"></path><path d="M17.753,31.795c-0.87,0.87 -0.952,2.83 -0.238,3.411c0.714,0.582 2.01,0.264 2.777,0c0.767,-0.264 -1.931,-4.019 -2.539,-3.411z" fill="url(#color-4)"></path><path d="M25.852,10.045c-1.821,0.013 -2.031,2.438 -0.226,2.591c1.756,0.148 1.917,-2.489 0.226,-2.591z" fill="#ffffff"></path><path d="M25.803,10.225c0.654,0.037 1.071,0.46 1.221,0.912c-0.069,-0.551 -0.453,-1.049 -1.172,-1.092c-0.726,0.005 -1.191,0.383 -1.38,0.858c0.2,-0.384 0.69,-0.674 1.331,-0.678z" fill="#4b59a3"></path><path d="M23.56,11.276c0.203,-0.35 0.312,-0.826 0.323,-1.204c-0.19,-0.305 -0.511,-0.531 -0.98,-0.56c-1.821,0.013 -2.031,2.438 -0.226,2.591c0.102,0.009 0.196,0.006 0.287,-0.003c0.182,-0.221 0.438,-0.55 0.596,-0.824z" fill="#ffffff"></path><path d="M22.792,9.677c0.461,0.028 0.87,0.289 1.064,0.587c0.006,-0.063 0.026,-0.132 0.028,-0.191c-0.19,-0.305 -0.511,-0.531 -0.98,-0.56c-0.692,0.005 -1.148,0.351 -1.352,0.796c0.235,-0.36 0.641,-0.628 1.24,-0.632z" fill="#4b59a3"></path><circle cx="25.547" cy="11.531" r="0.696" fill="#795548"></circle><circle cx="25.547" cy="11.531" r="0.47" fill="#000000"></circle><circle cx="22.786" cy="10.974" r="0.696" fill="#795548"></circle><circle cx="22.786" cy="10.974" r="0.417" fill="#000000"></circle><circle cx="23.203" cy="10.557" r="0.278" fill="#ffffff"></circle><circle cx="25.974" cy="11.104" r="0.269" fill="#ffffff"></circle><path d="M26.716,31.728c-0.05,1.271 -1.19,4.79 -3.66,4.79c-2.47,0 -4.806,-3.07 -5.282,-4.081c-0.476,-1.012 0.165,-1.84 0.462,-2.018c0.298,-0.179 1.22,-0.803 2.678,0.446c1.458,1.25 2.083,2.261 2.469,2.261c0.387,0 0.893,-2.112 1.845,-2.41c0.854,-0.267 1.514,0.357 1.488,1.012z" fill="url(#color-5)"></path><path d="M21.124,31.048c1.15,-0.712 2.791,-2.139 4.871,-1.427c2.08,0.712 0.986,2.245 0.301,2.628c-0.684,0.383 -1.68,0.11 -2.912,0.876c-0.723,-0.502 -1.223,-1.073 -2.26,-2.077z" fill="url(#color-6)"></path><path d="M26.003,6.828c0.16,-0.437 0.581,-0.482 1.343,0.095c0.762,0.577 1.43,1.591 1.904,2.47c-0.647,-0.069 -0.765,-0.139 -0.765,-0.139c0,0 -0.804,-0.9 -1.709,-1.45c-0.77,-0.468 -0.865,-0.726 -0.773,-0.976z" fill="#7986cb"></path><path d="M24.724,6.554c-0.236,0.55 -0.84,-0.049 -1.647,0.511c-0.431,0.299 -0.772,0.919 -0.772,0.919c0,0 -0.088,-1.118 1.102,-1.766c1.19,-0.648 1.505,-0.101 1.317,0.336z" fill="#7986cb"></path><path d="M30.75,10.567c0,0 0.065,-0.165 0.109,-0.427c0.044,-0.262 0.022,-0.48 -0.698,-0.589c-0.72,-0.109 -4.646,-0.851 -5.126,-0.938c-0.48,-0.087 -0.916,0.763 -0.916,0.763c0,0 0.109,-1.003 -0.742,-1.178c-0.851,-0.174 -4.951,-0.982 -4.951,-0.982c-0.262,0.24 -0.262,1.112 -0.24,1.658c0.24,0.327 0.371,0.698 0.371,1.44c0,0.742 -0.305,1.505 1.025,1.919c1.331,0.414 2.74,0.693 3.555,0c0.436,-0.371 0.611,-0.916 0.611,-0.916c0,0 -0.022,0.821 0.371,1.338c0.393,0.516 0.825,0.736 1.523,0.933c0.698,0.196 1.566,0.33 2.052,0.328c0.611,-0.003 0.904,-0.039 1.377,-0.744c0.329,-0.49 0.567,-1.112 0.698,-1.287c0.131,-0.174 0.312,-0.512 1.091,-0.131c0.448,0.219 0.507,-0.084 0.436,-0.327c-0.062,-0.21 -0.546,-0.86 -0.546,-0.86zM23.379,10.66c-0.242,0.879 -0.546,1.352 -1.526,1.436c-0.774,0.067 -1.395,-0.074 -1.9,-0.228c-0.505,-0.154 -0.796,-0.318 -0.905,-1.131c-0.11,-0.813 0.049,-1.659 0.049,-1.659l1.818,1.08l0.467,-0.698c0,0 -1.165,-0.8 -1.516,-1.019c1.186,0.022 1.889,0.088 2.745,0.329c0.856,0.243 1.01,1.011 0.768,1.89zM28.607,12.891c-0.305,0.323 -0.526,0.48 -1.431,0.397c-0.763,-0.07 -2.369,-0.434 -2.753,-1.176c-0.427,-0.825 -0.004,-2.067 0.314,-2.392c0.381,-0.388 1.099,-0.351 1.675,-0.288c0.843,0.091 2.684,0.382 2.813,1.324c0.129,0.942 -0.426,1.932 -0.618,2.135z" fill="#e0f2f1"></path><path d="M17.123,20.124c1.139,0.614 2.292,1.076 3.471,1.356c1.178,0.267 2.385,0.365 3.542,0.141c1.168,-0.228 2.268,-0.779 3.152,-1.602c0.89,-0.821 1.568,-1.911 1.962,-3.125c-0.114,1.273 -0.625,2.55 -1.498,3.565c-0.866,1.023 -2.095,1.75 -3.406,2.076c-2.684,0.672 -5.57,-0.427 -7.223,-2.411z" fill="#4caf50"></path></g></g></g></svg>